<svg id="Layer_1" data-name="Layer 1" xmlns="http://www.w3.org/2000/svg" viewBox="0 0 1000 280.59"><defs><style>.cls-1{fill:#54565b;}.cls-2{fill:#e8342b;}</style></defs><polygon class="cls-1" points="857.47 99.12 824.79 140.67 714.47 0.43 779.82 0.43 857.47 99.12"/><polygon class="cls-1" points="1000.45 0.43 890.13 140.67 857.47 99.12 935.11 0.43 1000.45 0.43"/><polygon class="cls-2" points="1000.45 280.89 935.11 280.89 857.47 182.19 779.82 280.89 714.47 280.89 824.79 140.67 857.47 99.12 890.13 140.67 1000.45 280.89"/><polygon class="cls-1" points="559.91 44.58 559.91 116.33 693.3 116.33 693.3 160.9 559.91 160.9 559.91 236.31 702.45 236.31 702.45 280.89 510.71 280.89 510.71 0 702.45 0 702.45 44.58 559.91 44.58"/><polygon class="cls-1" points="355.87 44.58 355.87 116.33 489.27 116.33 489.27 160.9 355.87 160.9 355.87 280.89 306.68 280.89 306.68 0 498.42 0 498.42 44.58 355.87 44.58"/><polygon class="cls-1" points="293.51 280.88 241.31 280.88 208.89 204.34 114.2 204.34 133.25 159.75 189.83 159.75 161.54 93.55 146.69 58.8 103.54 159.75 84.48 204.34 51.77 280.9 -0.45 280.9 119.73 -0.31 173.64 -0.31 176.76 7.01 187.64 32.48 242.05 159.75 255.71 191.69 293.51 280.88"/></svg>

