<?xml version="1.0" encoding="utf-8"?>
<!-- Generator: Adobe Illustrator 21.0.2, SVG Export Plug-In . SVG Version: 6.00 Build 0)  -->
<svg version="1.1" id="Layer_1" xmlns="http://www.w3.org/2000/svg" xmlns:xlink="http://www.w3.org/1999/xlink" x="0px" y="0px"
	 viewBox="0 0 192 124" style="enable-background:new 0 0 192 124;" xml:space="preserve">
<style type="text/css">
	.st0{fill:#C8C8C8;}
	.st1{fill:none;stroke:#000000;stroke-miterlimit:10;}
	.st2{clip-path:url(#SVGID_2_);}
	.st3{clip-path:url(#SVGID_4_);}
</style>
<g>
	<path d="M190,2v120H2V2H190 M190,0H2C0.9,0,0,0.9,0,2v120c0,1.1,0.9,2,2,2h188c1.1,0,2-0.9,2-2V2C192,0.9,191.1,0,190,0L190,0z"/>
</g>
<rect x="7" y="20" class="st0" width="27" height="3"/>
<rect x="7" y="30" class="st0" width="27" height="3"/>
<rect x="7" y="40" class="st0" width="27" height="3"/>
<rect x="7" y="50" class="st0" width="20" height="3"/>
<rect x="39" y="13" width="2" height="110"/>
<rect x="1" y="11" width="190" height="2"/>
<rect x="7" y="68" class="st0" width="27" height="3"/>
<rect x="7" y="78" class="st0" width="27" height="3"/>
<rect x="7" y="88" class="st0" width="27" height="3"/>
<rect x="7" y="98" class="st0" width="20" height="3"/>
<path class="st1" d="M189.3,30.7"/>
<path class="st1" d="M186.6,39.5"/>
<rect x="39" y="27.5" width="153" height="2"/>
<path d="M41,12.5v15h150v-15H41z M48.5,22.5c-1.4,0-2.5-1.1-2.5-2.5s1.1-2.5,2.5-2.5S51,18.6,51,20S49.9,22.5,48.5,22.5z"/>
<rect x="39.6" y="42.5" width="152.4" height="2"/>
<path d="M48.5,38.5L48.5,38.5c-1.4,0-2.5-1.1-2.5-2.5l0,0c0-1.4,1.1-2.5,2.5-2.5l0,0c1.4,0,2.5,1.1,2.5,2.5l0,0
	C51,37.4,49.9,38.5,48.5,38.5z"/>
<rect x="39" y="57.5" width="153" height="2"/>
<rect x="39.6" y="57.5" width="152.4" height="2"/>
<path d="M48.5,53.5L48.5,53.5c-1.4,0-2.5-1.1-2.5-2.5l0,0c0-1.4,1.1-2.5,2.5-2.5l0,0c1.4,0,2.5,1.1,2.5,2.5l0,0
	C51,52.4,49.9,53.5,48.5,53.5z"/>
<path class="st1" d="M193,101"/>
<rect x="67" y="66.5" width="56" height="3"/>
<rect x="67" y="75.5" width="42" height="3"/>
<rect x="67" y="94.5" width="56" height="3"/>
<rect x="67" y="103.5" width="42" height="3"/>
<rect x="67" y="113.1" class="st0" width="115.8" height="3"/>
<rect x="39.6" y="86.5" width="151.4" height="2"/>
<rect x="39" y="121.5" width="152" height="2"/>
<g>
	<path class="st0" d="M54,80.5L54,80.5c-3.9,0-7-3.1-7-7l0,0c0-3.9,3.1-7,7-7l0,0c3.9,0,7,3.1,7,7l0,0C61,77.4,57.9,80.5,54,80.5z"
		/>
	<g>
		<g>
			<g>
				<g>
					<defs>
						<path id="SVGID_1_" d="M54,80.5L54,80.5c-3.9,0-7-3.1-7-7l0,0c0-3.9,3.1-7,7-7l0,0c3.9,0,7,3.1,7,7l0,0
							C61,77.4,57.9,80.5,54,80.5z"/>
					</defs>
					<clipPath id="SVGID_2_">
						<use xlink:href="#SVGID_1_"  style="overflow:visible;"/>
					</clipPath>
					<g class="st2">
						<path d="M54,74.4L54,74.4c-1.4,0-2.6-1.2-2.6-2.6l0,0c0-1.4,1.2-2.6,2.6-2.6l0,0c1.4,0,2.6,1.2,2.6,2.6l0,0
							C56.6,73.2,55.4,74.4,54,74.4z"/>
						<path d="M54.6,83.1h-1.2c-2.1,0-3.8-1.7-3.8-3.7v-1.3c0-2.1,1.7-3.7,3.8-3.7h1.2c2.1,0,3.8,1.7,3.8,3.7v1.3
							C58.4,81.4,56.7,83.1,54.6,83.1z"/>
					</g>
				</g>
			</g>
		</g>
	</g>
</g>
<g>
	<path class="st0" d="M54,108.5L54,108.5c-3.9,0-7-3.1-7-7l0,0c0-3.9,3.1-7,7-7l0,0c3.9,0,7,3.1,7,7l0,0
		C61,105.4,57.9,108.5,54,108.5z"/>
	<g>
		<g>
			<g>
				<g>
					<defs>
						<path id="SVGID_3_" d="M54,108.5L54,108.5c-3.9,0-7-3.1-7-7l0,0c0-3.9,3.1-7,7-7l0,0c3.9,0,7,3.1,7,7l0,0
							C61,105.4,57.9,108.5,54,108.5z"/>
					</defs>
					<clipPath id="SVGID_4_">
						<use xlink:href="#SVGID_3_"  style="overflow:visible;"/>
					</clipPath>
					<g class="st3">
						<path d="M54,102.4L54,102.4c-1.4,0-2.6-1.2-2.6-2.6l0,0c0-1.4,1.2-2.6,2.6-2.6l0,0c1.4,0,2.6,1.2,2.6,2.6l0,0
							C56.6,101.2,55.4,102.4,54,102.4z"/>
						<path d="M54.6,111.1h-1.2c-2.1,0-3.8-1.7-3.8-3.7v-1.3c0-2.1,1.7-3.7,3.8-3.7h1.2c2.1,0,3.8,1.7,3.8,3.7v1.3
							C58.4,109.4,56.7,111.1,54.6,111.1z"/>
					</g>
				</g>
			</g>
		</g>
	</g>
</g>
</svg>
