<?xml version="1.0" encoding="UTF-8"?>
<svg width="121px" height="120px" viewBox="0 0 121 120" version="1.1" xmlns="http://www.w3.org/2000/svg" xmlns:xlink="http://www.w3.org/1999/xlink">
    <title>illustration_drink</title>
    <g id="illustration_drink" stroke="none" stroke-width="1" fill="none" fill-rule="evenodd" transform="translate(1.000000, 0.000000)">
        <g id="Empty-/-ðŸ¹-/-General-/-Light">
            <g id="Empty-Drink-Color" transform="translate(16.500000, 4.500000)">
                <path d="M82.8975,42.285 C90.9748956,29.9981418 87.8096084,13.5146907 75.7557047,5.09360937 C63.701801,-3.32747195 47.1355528,-0.628838503 38.3775,11.1825 L82.8975,42.285 Z" id="Path" fill="#B2AEAA" fill-rule="nonzero"></path>
                <path d="M58.1775,21.39 L56.1525,9.96 C56.0581143,9.4572302 55.7499453,9.0202727 55.3080247,8.76260564 C54.8661041,8.50493858 54.3340364,8.4519861 53.85,8.6175 C50.7213119,9.65866541 47.9013654,11.4630188 45.645,13.8675 C45.310379,14.2374529 45.1514579,14.7336869 45.208909,15.2292026 C45.2663601,15.7247182 45.5346077,16.1714255 45.945,16.455 L55.5,23.1225 C56.0767885,23.504305 56.8249549,23.5082049 57.4056923,23.1324336 C57.9864297,22.7566623 58.289438,22.0725905 58.1775,21.39 Z" id="Path" fill="#C7C5C3" fill-rule="nonzero"></path>
                <path d="M69.09,9.6975 C66.1365744,8.21567988 62.8601929,7.49389638 59.5575,7.5975 C59.0464877,7.60996255 58.5660572,7.84366498 58.2408038,8.23799877 C57.9155504,8.63233257 57.7775165,9.14844967 57.8625,9.6525 L59.895,21.0825 C60.0153246,21.7777799 60.5436346,22.3315529 61.2324852,22.4844482 C61.9213359,22.6373434 62.6343212,22.3590846 63.0375,21.78 L69.705,12.24 C69.9932996,11.8303624 70.0910723,11.316348 69.9733025,10.8294703 C69.8555327,10.3425927 69.5336463,9.93008871 69.09,9.6975 Z" id="Path" fill="#C7C5C3" fill-rule="nonzero"></path>
                <path d="M71.1375,13.23 L64.5,22.7775 C64.0944014,23.35025 64.0725983,24.1105987 64.4447101,24.7056496 C64.8168218,25.3007005 65.5099907,25.6139456 66.2025,25.5 L77.67,23.46 C78.1735462,23.3699112 78.6123344,23.0637107 78.8706235,22.6221662 C79.1289126,22.1806217 79.1807638,21.6480757 79.0125,21.165 C77.9827119,18.0179289 76.1772306,15.1807441 73.7625,12.915 C73.3893672,12.5684143 72.8826436,12.4035508 72.3770073,12.4642272 C71.8713709,12.5249035 71.4180394,12.8049737 71.1375,13.23 L71.1375,13.23 Z" id="Path" fill="#C7C5C3" fill-rule="nonzero"></path>
                <path d="M65.8125,30.3525 L75.3825,37.035 C75.7899625,37.3236589 76.3021598,37.4224707 76.7877597,37.3060991 C77.2733596,37.1897276 77.685134,36.8694906 77.9175,36.4275 C79.4136498,33.4679407 80.140983,30.1794663 80.0325,26.865 C80.0215551,26.357721 79.7915964,25.8800051 79.4019211,25.555036 C79.0122458,25.2300669 78.5009951,25.0896525 78,25.17 L66.5175,27.2025 C65.8217698,27.3242828 65.2677571,27.8529065 65.1134949,28.5421631 C64.9592327,29.2314198 65.2350563,29.9457688 65.8125,30.3525 L65.8125,30.3525 Z" id="Path" fill="#C7C5C3" fill-rule="nonzero"></path>
                <path d="M70.125,105.5925 L36.9525,111.48 C32.3486553,112.295026 27.9180902,109.34462 26.895,104.7825 L9.645,27.885 L66.99,17.7075 L77.25,95.8425 C77.8603376,100.473865 74.7229215,104.767171 70.125,105.5925 Z" id="Path" fill="#E1DFDD" fill-rule="nonzero"></path>
                <path d="M65.415,99.66 L39.33,104.2875 C35.8555085,104.902261 32.5120127,102.675467 31.74,99.2325 L17.7375,37.35 C17.7375,37.35 29.91,46.11 45.36,42.075 C57.36,38.955 64.335,42.705 64.335,42.705 L70.8,92.3025 C71.2596603,95.7999997 68.8877851,99.0406815 65.415,99.66 Z" id="Path" fill="#B2AEAA" fill-rule="nonzero"></path>
                <polygon id="Path" fill="#797673" fill-rule="nonzero" points="68.9475 32.5425 66.9975 17.7075 51.6225 20.4375"></polygon>
                <path d="M55.5,23.1225 C56.0772686,23.5296948 56.8434366,23.5474537 57.4389517,23.1674427 C58.0344668,22.7874317 58.3411188,22.0850832 58.215,21.39 L57.855,19.335 L51.66,20.4375 L55.5,23.1225 Z" id="Path" fill="#B2AEAA" fill-rule="nonzero"></path>
                <path d="M63.0375,21.75 L65.7225,17.9025 L59.5275,19.005 L59.895,21.0525 C60.0153246,21.7477799 60.5436346,22.3015529 61.2324852,22.4544482 C61.9213359,22.6073434 62.6343212,22.3290846 63.0375,21.75 L63.0375,21.75 Z" id="Path" fill="#B2AEAA" fill-rule="nonzero"></path>
                <path d="M67.155,18.93 L64.5,22.7775 C64.0944014,23.35025 64.0725983,24.1105987 64.4447101,24.7056496 C64.8168218,25.3007005 65.5099907,25.6139456 66.2025,25.5 L67.98,25.185 L67.155,18.93 Z" id="Path" fill="#B2AEAA" fill-rule="nonzero"></path>
                <path d="M65.8125,30.3525 L68.9475,32.5425 L68.1975,26.9025 L66.495,27.2025 C65.8028231,27.3310998 65.255413,27.862503 65.106334,28.5505599 C64.957255,29.2386167 65.2356246,29.9489389 65.8125,30.3525 L65.8125,30.3525 Z" id="Path" fill="#B2AEAA" fill-rule="nonzero"></path>
                <path d="M51.2475,94.0951159 C50.240536,94.0964235 49.3552361,93.4286194 49.08,92.46 L28.1175,18.36 L2.0025,8.61 C1.23976011,8.33578228 0.683459517,7.6725137 0.54620654,6.87368386 C0.408953562,6.07485402 0.711963858,5.26394075 1.33943221,4.75086087 C1.96690056,4.23778099 2.82183707,4.101843 3.5775,4.395 L31.83,14.94 L53.4075,91.2375 C53.7441536,92.4323962 53.0494256,93.6741805 51.855,94.0125 C51.6575816,94.0693592 51.4529321,94.0971511 51.2475,94.0951159 Z" id="Path" fill="#797673" fill-rule="nonzero"></path>
            </g>
        </g>
    </g>
</svg>