<svg width="118" height="92" xmlns="http://www.w3.org/2000/svg"><g fill="none" fill-rule="evenodd"><path d="M113.403 54.92h-.167c0-4.195-3.345-7.551-7.527-7.551-3.847 0-7.024 3.02-7.526 6.712-1.004-1.174-2.509-2.013-4.182-2.013-2.843 0-5.184 2.349-5.184 5.37 0 2.852 2.341 5.202 5.184 5.202h19.402c2.174 0 3.847-1.678 3.847-3.86 0-2.014-1.673-3.86-3.847-3.86z" fill="#666" opacity=".3"/><path d="M90.347 11.783h-1.119C89.005 5.212 83.411 0 76.922 0c-5.818 0-10.74 3.852-12.083 9.29-1.79-1.812-4.028-2.719-6.49-2.719-4.922 0-8.726 3.626-9.173 8.384-1.79.227-3.133.907-4.475 2.04-.895-1.36-2.462-2.266-4.028-2.266-2.909 0-5.146 2.266-5.146 5.211 0 2.946 2.237 5.212 5.146 5.212h50.122c3.356-.227 6.041-3.172 6.041-6.798 0-3.625-2.909-6.571-6.489-6.571z" fill="#D1D1D1"/><path d="M21.5 29.66c-.164 0-.328.161-.492.161.328-.646.493-1.292.493-1.938 0-2.26-1.806-4.199-4.268-4.199-2.133 0-3.939 1.615-4.103 3.715a4.52 4.52 0 00-3.118-1.292c-2.298 0-4.268 1.615-4.268 3.876-.492-.162-.984-.323-1.477-.323C1.97 29.66 0 31.597 0 33.858c0 2.423 1.97 4.199 4.267 4.199h17.234c2.297 0 4.267-1.776 4.267-4.199 0-2.26-1.97-4.198-4.267-4.198z" fill="#666" opacity=".3"/><path fill="#FFF" d="M33.835 91.441h37.63v-50.84h-37.63z"/><path fill="#F0F0F0" d="M71.466 91.441H33.835V51.974l11.932-11.372h25.699z"/><path fill="#DBD8D8" d="M46.378 52.252H33.835l12.543-11.65z"/><path d="M38.295 55.43h11.707c.279 0 .558-.353.558-.706 0 0-.28-.353-.558-.353H38.295c-.279 0-.279.353-.279.353 0 .353 0 .706.279.706M38.295 59.667h11.707c.279 0 .558 0 .558-.354 0-.353-.28-.706-.558-.706H38.295c-.279 0-.279.353-.279.706 0 .354 0 .354.279.354M38.295 63.903h11.707c.279 0 .558-.353.558-.706s-.28-.353-.558-.353H38.295c-.279 0-.279 0-.279.353s0 .706.279.706M38.295 68.14h11.707c.279 0 .558-.353.558-.706 0 0-.28-.353-.558-.353H38.295c-.279 0-.279.353-.279.353 0 .353 0 .706.279.706M38.295 79.79h11.707c.279 0 .558-.353.558-.353 0-.353-.28-.706-.558-.706H38.295c-.279 0-.279.353-.279.706 0 0 0 .353.279.353M56.344 68.14H68.05c.279 0 .279-.353.279-.706 0 0 0-.353-.28-.353H56.345c-.28 0-.558.353-.558.353 0 .353.279.706.558.706M56.344 72.376H68.05c.279 0 .279 0 .279-.353s0-.706-.28-.706H56.345c-.28 0-.558.353-.558.706s.279.353.558.353M56.344 76.613H68.05c.279 0 .279-.353.279-.706s0-.353-.28-.353H56.345c-.28 0-.558 0-.558.353s.279.706.558.706M56.344 79.79H68.05c.279 0 .279-.353.279-.353 0-.353 0-.706-.28-.706H56.345c-.28 0-.558.353-.558.706 0 0 .279.353.558.353" fill="#737373"/><path fill="#ACACAC" d="M55.786 64.962H68.33v-11.65H55.786zM38.016 77.672H50.56V69.2H38.016z"/></g></svg>