<svg xmlns="http://www.w3.org/2000/svg" width="20" height="20" preserveAspectRatio="xMidYMid meet" viewBox="0 0 20 20">

<path id="envelope" fill="#616161" d="m4.828 10.485l5.657-5.657a3 3 0 0 1 4.243 4.243L8.01 15.788a1.5 1.5 0 0 1-2.121-2.121l6.01-6.01a.5.5 0 1 0-.707-.708l-6.01 6.01a2.5 2.5 0 0 0 3.535 3.536l6.718-6.717A4 4 0 1 0 9.778 4.12L4.12 9.778a.5.5 0 0 0 .707.707Z"/>

<path id="people" fill="#0077d9" d="M502.3 190.8c3.9-3.1 9.7-.2 9.7 4.7V400c0 26.5-21.5 48-48 48H48c-26.5 0-48-21.5-48-48V195.6c0-5 5.7-7.8 9.7-4.7c22.4 17.4 52.1 39.5 154.1 113.6c21.1 15.4 56.7 47.8 92.2 47.6c35.7.3 72-32.8 92.3-47.6c102-74.1 131.6-96.3 154-113.7zM256 320c23.2.4 56.6-29.2 73.4-41.4c132.7-96.3 142.8-104.7 173.4-128.7c5.8-4.5 9.2-11.5 9.2-18.9v-19c0-26.5-21.5-48-48-48H48C21.5 64 0 85.5 0 112v19c0 7.4 3.4 14.3 9.2 18.9c30.6 23.9 40.7 32.4 173.4 128.7c16.8 12.2 50.2 41.8 73.4 41.4z"/>

<path id="application" fill="#616161" d="m18.492 2.33l3.179 3.18a2.25 2.25 0 0 1 0 3.182l-2.584 2.584A2.25 2.25 0 0 1 21 13.5v5.25A2.25 2.25 0 0 1 18.75 21H5.25A2.25 2.25 0 0 1 3 18.75V5.25A2.25 2.25 0 0 1 5.25 3h5.25a2.25 2.25 0 0 1 2.225 1.915L15.31 2.33a2.25 2.25 0 0 1 3.182 0ZM4.5 18.75c0 .415.336.75.75.75h5.999l.001-6.75H4.5v6Zm8.249.75h6.001a.75.75 0 0 0 .75-.75V13.5a.75.75 0 0 0-.75-.75h-6.001v6.75ZM10.5 4.5H5.25a.75.75 0 0 0-.75.75v6h6.75v-6a.75.75 0 0 0-.75-.75Zm2.25 4.81v1.94h1.94l-1.94-1.94Zm3.62-5.918L13.193 6.57a.75.75 0 0 0 0 1.061l3.179 3.179a.75.75 0 0 0 1.06 0l3.18-3.179a.75.75 0 0 0 0-1.06l-3.18-3.18a.75.75 0 0 0-1.06 0Z"/>

</svg>
