<?xml version="1.0" encoding="utf-8"?>
<!-- Generator: Adobe Illustrator 21.0.2, SVG Export Plug-In . SVG Version: 6.00 Build 0)  -->
<svg version="1.1" id="Layer_1" xmlns="http://www.w3.org/2000/svg" xmlns:xlink="http://www.w3.org/1999/xlink" x="0px" y="0px"
	 viewBox="0 0 192 124" style="enable-background:new 0 0 192 124;" xml:space="preserve">
<style type="text/css">
	.st0{fill:#C8C8C8;}
	.st1{fill:none;stroke:#010101;stroke-miterlimit:10;}
	.st2{fill:none;stroke:#000000;stroke-miterlimit:10;}
</style>
<g>
	<path d="M190,2v120H2V2H190 M190,0H2C0.9,0,0,0.9,0,2v120c0,1.1,0.9,2,2,2h188c1.1,0,2-0.9,2-2V2C192,0.9,191.1,0,190,0L190,0z"/>
</g>
<rect x="7" y="20" class="st0" width="27" height="3"/>
<rect x="7" y="30" class="st0" width="27" height="3"/>
<rect x="7" y="40" class="st0" width="27" height="3"/>
<rect x="7" y="50" class="st0" width="20" height="3"/>
<rect x="39" y="13" width="2" height="110"/>
<rect x="1" y="11" width="190" height="2"/>
<rect x="7" y="68" class="st0" width="27" height="3"/>
<rect x="7" y="78" class="st0" width="27" height="3"/>
<rect x="7" y="88" class="st0" width="27" height="3"/>
<rect x="7" y="98" class="st0" width="20" height="3"/>
<path class="st1" d="M191,40"/>
<path class="st2" d="M186.6,41"/>
<rect x="40" y="29" width="151" height="2"/>
<path d="M48.5,24L48.5,24c-1.4,0-2.5-1.1-2.5-2.5l0,0c0-1.4,1.1-2.5,2.5-2.5l0,0c1.4,0,2.5,1.1,2.5,2.5l0,0C51,22.9,49.9,24,48.5,24
	z"/>
<rect x="40" y="44" width="151" height="2"/>
<path d="M48.5,40L48.5,40c-1.4,0-2.5-1.1-2.5-2.5l0,0c0-1.4,1.1-2.5,2.5-2.5l0,0c1.4,0,2.5,1.1,2.5,2.5l0,0C51,38.9,49.9,40,48.5,40
	z"/>
<rect x="40" y="59" width="151" height="2"/>
<path d="M48.5,55L48.5,55c-1.4,0-2.5-1.1-2.5-2.5l0,0c0-1.4,1.1-2.5,2.5-2.5l0,0c1.4,0,2.5,1.1,2.5,2.5l0,0C51,53.9,49.9,55,48.5,55
	z"/>
<rect x="40" y="75" width="151" height="2"/>
<path d="M48.5,71L48.5,71c-1.4,0-2.5-1.1-2.5-2.5l0,0c0-1.4,1.1-2.5,2.5-2.5l0,0c1.4,0,2.5,1.1,2.5,2.5l0,0C51,69.9,49.9,71,48.5,71
	z"/>
<rect x="40" y="91" width="151" height="2"/>
<path d="M48.5,86L48.5,86c-1.4,0-2.5-1.1-2.5-2.5l0,0c0-1.4,1.1-2.5,2.5-2.5l0,0c1.4,0,2.5,1.1,2.5,2.5l0,0C51,84.9,49.9,86,48.5,86
	z"/>
<rect x="40" y="107" width="151" height="2"/>
<path d="M48.5,102L48.5,102c-1.4,0-2.5-1.1-2.5-2.5l0,0c0-1.4,1.1-2.5,2.5-2.5l0,0c1.4,0,2.5,1.1,2.5,2.5l0,0
	C51,100.9,49.9,102,48.5,102z"/>
<path d="M48.5,118L48.5,118c-1.4,0-2.5-1.1-2.5-2.5l0,0c0-1.4,1.1-2.5,2.5-2.5l0,0c1.4,0,2.5,1.1,2.5,2.5l0,0
	C51,116.9,49.9,118,48.5,118z"/>
</svg>
