<svg xmlns="http://www.w3.org/2000/svg" viewBox="0 0 20 20"><title>OneDrive_20x</title><path d="M11.549,11.093l4.023-2.424A5.626,5.626,0,0,0,5.314,7.147Z" fill="#0364b8"/><path d="M7.864,7.667h0A4.48,4.48,0,0,0,5.5,7H5.442a4.5,4.5,0,0,0-3.634,7.071l5.805-.93,4.03-3.209Z" fill="#0078d4"/><path d="M15.584,8.687c-.082-.006-.164-.009-.247-.009a3.625,3.625,0,0,0-1.449.3h0l-2.252.948,2.485,3.158,4.435.987a3.657,3.657,0,0,0-2.972-5.382Z" fill="#1490df"/><path d="M11.643,9.934,1.808,14.072A4.5,4.5,0,0,0,5.5,16h9.844a3.656,3.656,0,0,0,3.219-1.921Z" fill="#28a8ea"/></svg>