<?xml version="1.0" encoding="utf-8"?>
<!-- Generator: Adobe Illustrator 21.0.2, SVG Export Plug-In . SVG Version: 6.00 Build 0)  -->
<svg version="1.1" id="Layer_1" xmlns="http://www.w3.org/2000/svg" xmlns:xlink="http://www.w3.org/1999/xlink" x="0px" y="0px"
	 viewBox="0 0 192 124" style="enable-background:new 0 0 192 124;" xml:space="preserve">
<style type="text/css">
	.st0{fill:none;stroke:#000000;stroke-miterlimit:10;}
	.st1{fill:#C8C8C8;}
	.st2{fill:#010101;}
	.st3{clip-path:url(#SVGID_2_);}
	.st4{clip-path:url(#SVGID_4_);}
	.st5{clip-path:url(#SVGID_6_);}
	.st6{fill:#FFFFFF;}
	.st7{clip-path:url(#SVGID_8_);}
</style>
<g>
	<path d="M190,2v120H2V2H190 M190,0H2C0.9,0,0,0.9,0,2v120c0,1.1,0.9,2,2,2h188c1.1,0,2-0.9,2-2V2C192,0.9,191.1,0,190,0L190,0z"/>
</g>
<path class="st0" d="M95,31.2"/>
<path class="st0" d="M95,108.2"/>
<path class="st0" d="M94,40"/>
<rect x="7" y="20" class="st1" width="27" height="3"/>
<rect x="7" y="30" class="st1" width="27" height="3"/>
<rect x="7" y="40" class="st1" width="27" height="3"/>
<rect x="7" y="50" class="st1" width="20" height="3"/>
<rect x="40" y="50.5" width="52.1" height="19.5"/>
<rect x="91" y="13" width="2" height="110"/>
<rect x="39" y="13" width="2" height="110"/>
<rect x="40" y="88" width="52" height="2"/>
<rect x="40" y="107" width="52" height="2"/>
<rect x="40" y="30" width="52" height="2"/>
<rect x="1" y="11" width="190" height="2"/>
<rect x="7" y="68" class="st1" width="27" height="3"/>
<rect x="7" y="78" class="st1" width="27" height="3"/>
<rect x="7" y="88" class="st1" width="27" height="3"/>
<rect x="7" y="98" class="st1" width="20" height="3"/>
<rect x="120" y="48" class="st2" width="56" height="3"/>
<rect x="120" y="57" class="st2" width="42" height="3"/>
<rect x="120" y="76" class="st2" width="56" height="3"/>
<rect x="120" y="85" class="st2" width="42" height="3"/>
<rect x="120" y="20" class="st2" width="56" height="3"/>
<rect x="120" y="29" class="st2" width="42" height="3"/>
<rect x="92" y="40" class="st2" width="99" height="2"/>
<rect x="92" y="68" class="st2" width="99" height="2"/>
<g>
	<path class="st1" d="M107,62L107,62c-3.9,0-7-3.1-7-7l0,0c0-3.9,3.1-7,7-7l0,0c3.9,0,7,3.1,7,7l0,0C114,58.9,110.9,62,107,62z"/>
	<g>
		<g>
			<defs>
				<path id="SVGID_1_" d="M107,62L107,62c-3.9,0-7-3.1-7-7l0,0c0-3.9,3.1-7,7-7l0,0c3.9,0,7,3.1,7,7l0,0C114,58.9,110.9,62,107,62z
					"/>
			</defs>
			<clipPath id="SVGID_2_">
				<use xlink:href="#SVGID_1_"  style="overflow:visible;"/>
			</clipPath>
			<g class="st3">
				<path class="st2" d="M107,55.9L107,55.9c-1.4,0-2.6-1.2-2.6-2.6l0,0c0-1.4,1.2-2.6,2.6-2.6l0,0c1.4,0,2.6,1.2,2.6,2.6l0,0
					C109.6,54.7,108.4,55.9,107,55.9z"/>
				<path class="st2" d="M107.6,64.6h-1.2c-2.1,0-3.8-1.7-3.8-3.7v-1.3c0-2.1,1.7-3.7,3.8-3.7h1.2c2.1,0,3.8,1.7,3.8,3.7v1.3
					C111.4,62.9,109.7,64.6,107.6,64.6z"/>
			</g>
		</g>
	</g>
</g>
<g>
	<path class="st1" d="M107,90L107,90c-3.9,0-7-3.1-7-7l0,0c0-3.9,3.1-7,7-7l0,0c3.9,0,7,3.1,7,7l0,0C114,86.9,110.9,90,107,90z"/>
	<g>
		<g>
			<defs>
				<path id="SVGID_3_" d="M107,90L107,90c-3.9,0-7-3.1-7-7l0,0c0-3.9,3.1-7,7-7l0,0c3.9,0,7,3.1,7,7l0,0C114,86.9,110.9,90,107,90z
					"/>
			</defs>
			<clipPath id="SVGID_4_">
				<use xlink:href="#SVGID_3_"  style="overflow:visible;"/>
			</clipPath>
			<g class="st4">
				<path class="st2" d="M107,83.9L107,83.9c-1.4,0-2.6-1.2-2.6-2.6l0,0c0-1.4,1.2-2.6,2.6-2.6l0,0c1.4,0,2.6,1.2,2.6,2.6l0,0
					C109.6,82.7,108.4,83.9,107,83.9z"/>
				<path class="st2" d="M107.6,92.6h-1.2c-2.1,0-3.8-1.7-3.8-3.8v-1.2c0-2.1,1.7-3.8,3.8-3.8h1.2c2.1,0,3.8,1.7,3.8,3.8v1.2
					C111.4,90.9,109.7,92.6,107.6,92.6z"/>
			</g>
		</g>
	</g>
</g>
<g>
	<path class="st1" d="M107,34L107,34c-3.9,0-7-3.1-7-7l0,0c0-3.9,3.1-7,7-7l0,0c3.9,0,7,3.1,7,7l0,0C114,30.9,110.9,34,107,34z"/>
	<g>
		<g>
			<defs>
				<path id="SVGID_5_" d="M107,34L107,34c-3.9,0-7-3.1-7-7l0,0c0-3.9,3.1-7,7-7l0,0c3.9,0,7,3.1,7,7l0,0C114,30.9,110.9,34,107,34z
					"/>
			</defs>
			<clipPath id="SVGID_6_">
				<use xlink:href="#SVGID_5_"  style="overflow:visible;"/>
			</clipPath>
			<g class="st5">
				<path class="st2" d="M107,27.9L107,27.9c-1.4,0-2.6-1.2-2.6-2.6l0,0c0-1.4,1.2-2.6,2.6-2.6l0,0c1.4,0,2.6,1.2,2.6,2.6l0,0
					C109.6,26.7,108.4,27.9,107,27.9z"/>
				<path class="st2" d="M107.6,36.6h-1.2c-2.1,0-3.8-1.7-3.8-3.7v-1.3c0-2.1,1.7-3.7,3.8-3.7h1.2c2.1,0,3.8,1.7,3.8,3.7v1.3
					C111.4,34.9,109.7,36.6,107.6,36.6z"/>
			</g>
		</g>
	</g>
</g>
<g>
	<path class="st6" d="M107,117L107,117c-3.9,0-7-3.1-7-7l0,0c0-3.9,3.1-7,7-7l0,0c3.9,0,7,3.1,7,7l0,0C114,113.9,110.9,117,107,117z
		"/>
	<g>
		<g>
			<defs>
				<path id="SVGID_7_" d="M107,117L107,117c-3.9,0-7-3.1-7-7l0,0c0-3.9,3.1-7,7-7l0,0c3.9,0,7,3.1,7,7l0,0
					C114,113.9,110.9,117,107,117z"/>
			</defs>
			<clipPath id="SVGID_8_">
				<use xlink:href="#SVGID_7_"  style="overflow:visible;"/>
			</clipPath>
			<g class="st7">
				<path class="st2" d="M107,110.9L107,110.9c-1.4,0-2.6-1.2-2.6-2.6l0,0c0-1.4,1.2-2.6,2.6-2.6l0,0c1.4,0,2.6,1.2,2.6,2.6l0,0
					C109.6,109.7,108.4,110.9,107,110.9z"/>
				<path class="st2" d="M107.6,119.6h-1.2c-2.1,0-3.8-1.7-3.8-3.8v-1.2c0-2.1,1.7-3.8,3.8-3.8h1.2c2.1,0,3.8,1.7,3.8,3.8v1.2
					C111.4,117.9,109.7,119.6,107.6,119.6z"/>
			</g>
		</g>
	</g>
</g>
<path class="st2" d="M92,96v28h99V96H92z M107,117L107,117c-3.9,0-7-3.1-7-7l0,0c0-3.9,3.1-7,7-7l0,0c3.9,0,7,3.1,7,7l0,0
	C114,113.9,110.9,117,107,117z M162,115h-42v-3h42V115z M176,106h-56v-3h56V106z"/>
</svg>
