<svg xmlns="http://www.w3.org/2000/svg" width="20" height="20" preserveAspectRatio="xMidYMid meet" viewBox="0 0 24 24"><path fill="white" d="M12 17.5a1.5 1.5 0 1 1 0 3a1.5 1.5 0 0 1 0-3Zm7 0a1.5 1.5 0 1 1 0 3a1.5 1.5 0 0 1 0-3Zm-14 0a1.5 1.5 0 1 1 0 3a1.5 1.5 0 0 1 0-3Zm7-7a1.5 1.5 0 1 1 0 3a1.5 1.5 0 0 1 0-3Zm7 0a1.5 1.5 0 1 1 0 3a1.5 1.5 0 0 1 0-3Zm-14 0a1.5 1.5 0 1 1 0 3a1.5 1.5 0 0 1 0-3Zm7-7a1.5 1.5 0 1 1 0 3a1.5 1.5 0 0 1 0-3Zm7 0a1.5 1.5 0 1 1 0 3a1.5 1.5 0 0 1 0-3Zm-14 0a1.5 1.5 0 1 1 0 3a1.5 1.5 0 0 1 0-3Z"/></svg>